<svg xmlns="http://www.w3.org/2000/svg" xmlns:xlink="http://www.w3.org/1999/xlink" viewBox="0 0 4800 2700"><defs><style>.cls-1{fill:none;}.cls-2{clip-path:url(#clip-path);}.cls-3{fill:#3c2415;}.cls-4{fill:#121214;opacity:0.3;}.cls-5{fill:#703e03;}.cls-6{fill:#844d03;}.cls-7{fill:#7a4100;}.cls-8{fill:#b56100;}.cls-9{fill:#ba5007;}.cls-10{fill:#f49146;}.cls-11{fill:#f6c01c;}.cls-12{opacity:0.51;}.cls-13{fill:#f9960d;}.cls-14{fill:#d37809;}.cls-15{isolation:isolate;}.cls-16,.cls-27,.cls-28,.cls-29,.cls-30{fill:#fbf9eb;}.cls-17{fill:#ffbe98;}.cls-18{fill:#e29674;}.cls-19{fill:#fcccb4;}.cls-20{fill:#7fad36;}.cls-21{fill:#34d197;}.cls-22{fill:#cf9a46;}.cls-23{fill:#ffcf4d;}.cls-24{fill:#ffe590;}.cls-25{fill:#1f398e;}.cls-26{fill:#edf4ff;}.cls-27{font-size:70.78px;}.cls-27,.cls-28,.cls-29,.cls-30{font-family:OpenSans-ExtraBold, Open Sans;font-weight:800;}.cls-28{font-size:204.92px;}.cls-29{font-size:293.48px;}.cls-30{font-size:74.9px;}.cls-31{fill:#303033;}.cls-32{fill:#fff6bf;}.cls-33{fill:#f57319;}.cls-34{fill:#ff9d26;}.cls-35{fill:#bcbec0;}.cls-36{fill:#d62821;}.cls-37{fill:#92201a;}</style><clipPath id="clip-path"><rect class="cls-1" width="4800" height="2700"/></clipPath></defs><g id="Layer_6" data-name="Layer 6"><g class="cls-2"><rect class="cls-3" width="4800" height="2700"/><polygon class="cls-4" points="2664.46 1437.62 4706.1 2616.46 6157.8 1772.56 4116.2 593.65 2664.46 1437.62"/><polygon class="cls-5" points="2664.46 1437.62 2822.59 1528.92 2822.59 559.78 2664.46 468.63 2664.46 1437.62"/><polygon class="cls-6" points="2980.54 1437.62 2822.59 1528.92 2822.59 559.78 2980.54 468.63 2980.54 1437.62"/><polygon class="cls-7" points="3958.22 685.09 4116.2 776.38 4116.2 -988.67 3958.22 -1079.82 3958.22 685.09"/><polygon class="cls-8" points="4274.16 685.09 4116.2 776.38 4116.2 -988.67 4274.16 -1079.82 4274.16 685.09"/><polygon class="cls-7" points="4548.15 2525.24 4706.1 2616.53 4706.1 1647.47 4548.15 1556.17 4548.15 2525.24"/><polygon class="cls-6" points="4864.15 2525.24 4706.1 2616.53 4706.1 1647.47 4864.15 1556.17 4864.15 2525.24"/><polygon class="cls-5" points="4706.1 1549.92 2664.46 371.08 2664.46 468.63 4706.1 1647.47 4706.1 1549.92"/><polygon class="cls-6" points="4706.1 1647.47 6157.8 803.5 6157.8 706.1 4706.1 1549.92 4706.1 1647.47"/><polygon class="cls-6" points="2664.46 371.08 4706.1 1549.92 6157.8 706.1 4116.2 -472.82 2664.46 371.08"/><polygon class="cls-9" points="4692.14 -73.54 3383.95 681.75 3017.8 469.35 3017.8 363.96 4692.14 -179.01 4692.14 -73.54"/><polygon class="cls-10" points="4692.14 -179.01 3383.95 576.42 3017.8 363.96 4325.83 -391.26 4692.14 -179.01"/><polygon class="cls-9" points="4666.16 -200.02 3358.08 555.05 2991.78 342.81 2991.78 237.34 4666.16 -305.49 4666.16 -200.02"/><polygon class="cls-10" points="4666.16 -305.49 3358.08 449.88 2991.78 237.34 4299.89 -517.95 4666.16 -305.49"/><polygon class="cls-9" points="4692.14 -349.24 3383.95 406.12 3017.8 193.65 3017.8 88.41 4692.14 -454.5 4692.14 -349.24"/><polygon class="cls-10" points="4692.14 -454.5 3383.95 300.8 3017.8 88.41 4325.83 -667.03 4692.14 -454.5"/><polygon class="cls-9" points="5193.35 265.4 3885.24 1020.76 3519.08 808.37 3519.08 703.05 5193.35 160.08 5193.35 265.4"/><polygon class="cls-10" points="5193.35 160.08 3885.24 915.36 3519.08 703.05 4827.12 -52.39 5193.35 160.08"/><polygon class="cls-9" points="5167.37 138.92 3859.33 894.14 3493.06 681.75 3493.06 576.42 5167.37 33.59 5167.37 138.92"/><polygon class="cls-10" points="5167.37 33.59 3859.33 788.89 3493.06 576.42 4801.1 -179.01 5167.37 33.59"/><polygon class="cls-9" points="5193.35 -10.16 3885.24 745.13 3519.08 532.66 3519.08 427.27 5193.35 -115.56 5193.35 -10.16"/><polygon class="cls-10" points="5193.35 -115.56 3885.24 639.88 3519.08 427.27 4827.12 -327.95 5193.35 -115.56"/><polygon class="cls-5" points="2664.46 371.08 2822.59 462.23 2822.59 -572.69 2664.46 -663.91 2664.46 371.08"/><polygon class="cls-6" points="2980.54 371.08 2822.59 462.23 2822.59 -572.69 2980.54 -663.91 2980.54 371.08"/><polygon class="cls-5" points="4548.15 1458.7 4706.1 1549.92 4706.1 514.86 4548.15 423.71 4548.15 1458.7"/><polygon class="cls-6" points="4864.15 1458.7 4706.1 1549.92 4706.1 514.86 4864.15 423.71 4864.15 1458.7"/><polygon class="cls-5" points="4706.1 417.39 2664.46 -761.38 2664.46 -663.91 4706.1 514.86 4706.1 417.39"/><polygon class="cls-6" points="4706.1 514.86 6157.8 -329.04 6157.8 -426.51 4706.1 417.39 4706.1 514.86"/><polygon class="cls-6" points="2664.46 -761.38 4706.1 417.39 6157.8 -426.51 4116.2 -1605.43 2664.46 -761.38"/><path class="cls-11" d="M2207.16-1100.35s-54,127.43-149.61,165.63c-174.26,69.61-389.74-187.42-417.42-289.57s16.59-183.55,16.59-183.55-191.57,112.34-287.49,203.74c-2.5,24-18.68,54.23-18.68,54.23l-88.1,1.7s-130,60.18-249.06,153.56c-37.64,38.49-41.73,497.46-41.73,497.46s-5.48,69.24,0,127.25c85.64,252.69,46.21,523.21,46.21,523.21S1164.78,308.09,1518.45,336s592.21-188.84,592.21-188.84S2502.43-659.1,2488.33-880.67,2281-1326.35,2281-1326.35Z"/><path class="cls-9" d="M1006.5,187.55c-273.48,578.68-174.36,910-174.36,910s-75.5,748.17-79.7,1270.73c-124.69,178-367.25,750.91-375.31,1178,43.34,188.92,470.39,283.45,557.08,88.38,43.34-212.23,160.91-732.43,377.43-1196.21,98.52-210.44,265.77-1256.21,265.77-1256.21s527-408.7,564.19-933c-38.58,12.74-478.74,140.45-478.74,140.45l-187.62-.28S1052.77,251.78,1006.5,187.55Z"/><path d="M1518.45,300.93s-328.11,1.13-491.29-237.42c0,0-9.29,89.8-20.66,124,52.55,220.91,472.67,247.6,472.67,247.6l30.93-68.1Z"/><path d="M1597.4-493.47c478.64,14.91,751.29-107.71,904.61-308C2476-233.51,2166.13,80.2,2170.37,203.87c210.67,478.88,385.31,2078.8,372.86,2163C2105.71,2692.5,1406.16,2748.82,1039,2614.79c328.63-941.45,179.92-1913.64,409.79-2240.57C1498.88,293.48,1654.51,146.15,1597.4-493.47Z"/><g id="Axonometric_Cube" data-name="Axonometric Cube"><polygon id="Cube_face_-_left" data-name="Cube face - left" class="cls-5" points="1857.83 4473.15 6627.78 1719.23 6627.78 1527.67 1857.83 4281.59 1857.83 4473.15"/><polygon class="cls-6" points="6627.77 1527.67 1857.83 4281.59 -799.63 2747.31 1347.5 1507.67 1733.07 1285.06 3970.32 -6.62 6627.77 1527.67"/></g><polygon class="cls-12" points="1347.5 1507.67 3026.7 2475.09 4274.7 1756.11 4274.7 1161.72 1347.5 1507.67"/><g id="Axonometric_Cube-2" data-name="Axonometric Cube"><polygon id="Cube_face_-_left-2" data-name="Cube face - left" class="cls-9" points="3070.07 2386.48 5494.43 986.77 5494.43 924.6 3070.07 2324.3 3070.07 2386.48"/><polygon id="Cube_face_-_right" data-name="Cube face - right" class="cls-9" points="1499.23 1479.55 3070.07 2386.48 3070.07 2324.3 1499.23 1417.38 1499.23 1479.55"/><polygon class="cls-10" points="5494.43 924.6 3070.07 2324.3 1499.23 1417.38 2841.68 642.31 3254.72 403.84 3923.59 17.67 5494.43 924.6"/></g><path class="cls-12" d="M3252.27,2217.06l-11.1,70.11-47,28.6v-59.24L1827.72,1461.64l-40.17,26.21-27.23-15.66C1776.66,1513,1746,1560,1746,1560v65.36s-30.64-10.21-110.3,4.09c-59.62,10.7-214.22-77-288.22-121.8l355.63-198.88Z"/><polygon id="Cube_face_-_top" data-name="Cube face - top" class="cls-1" points="3070.07 2324.3 5494.43 924.6 3923.59 17.67 1499.23 1417.38 3070.07 2324.3"/><polygon points="3311.28 2207.98 3232.5 2253.47 3232.5 2302.54 3236.78 2305.01 3315.57 2259.52 3315.57 2210.45 3311.28 2207.98"/><path class="cls-9" d="M1799.38,1235.44l-.6,213.08c0,4.54-1.63,7.73-4.21,9.23l97.17-56.47c2.59-1.5,4.2-4.69,4.2-9.23l.61-213.08Z"/><path class="cls-13" d="M1889.57,1148.7a95.82,95.82,0,0,0-15.42-24.25c-1-1.17-2.07-2.3-3.15-3.4-19.69-20.15-47.73-47.71-73.33-68.8a212.7,212.7,0,0,0-28.5-21.18c-1.61-1-3.18-2-4.75-2.85-36.75-21.22-70.07-23.19-94.13-9.21l-97.17,56.47,226.26,160,97.17-56.47C1896.57,1169.39,1894,1158.83,1889.57,1148.7Z"/><path class="cls-14" d="M1773.83,1177.52c-19.68-20.15-47.72-47.71-73.33-68.8a211.76,211.76,0,0,0-28.5-21.17c-1.61-1-3.18-2-4.74-2.86-72.18-41.67-131.1-9.1-132.71,72.71-1.61,84.4,60.69,190.22,134.83,233l114.87,66.33c8,4.59,14.5.93,14.53-8.23l.6-213.08C1799.43,1216.33,1789.31,1193.32,1773.83,1177.52Z"/><path d="M1658.79,1125.33c-49.23-28.43-89.29-5.59-89.46,51s39.65,125.52,88.88,153.94,89.3,5.6,89.45-51S1708.07,1153.78,1658.79,1125.33Z"/><polygon points="1877.4 1206.84 1819.07 1240.52 1819.07 1394.19 1877.4 1360.51 1877.4 1206.84"/><g class="cls-15"><path class="cls-5" d="M1908.33,1241.73a57.55,57.55,0,0,0-7.78-12.78l-18.77-23.42c-3.9-1.58-62.88,32.72-62.88,32.72l27.73,71.14,59-34.3c4.37-2.53,6.85-8,6.87-15.31A45.26,45.26,0,0,0,1908.33,1241.73Z"/><path d="M1821.25,1238.48c1.56,1.35,20.32,24.77,20.32,24.77,7.51,9.34,12,21,11.92,30.83s-4.51,16.34-12,16.85l-18.68,1.61c-3.25-1.41-4.82-3.82-4.81-5.89l0-66.36C1818,1238.12,1819.57,1237.5,1821.25,1238.48Z"/></g><polygon class="cls-16" points="1887.24 1388.07 1808.66 1433.44 3214.64 2245.19 3293.22 2199.82 1887.24 1388.07"/><g id="Axonometric_Cube-3" data-name="Axonometric Cube"><polygon points="3236.55 2253.6 3188.99 2226.14 3188.99 2233.2 3236.55 2260.66 3315.57 2215.04 3315.57 2207.98 3236.55 2253.6"/><polygon id="Cube_face_-_top-2" data-name="Cube face - top" class="cls-5" points="3236.55 2253.6 3188.99 2226.14 3268 2180.53 3315.57 2207.98 3236.55 2253.6"/></g><path class="cls-17" d="M1773.59,1373.13c-15.15,17.18-49.31-.63-50-1,.1.12.89,1,2.13,2.5,8.49,10.22,38.32,49,16.24,64.89-25.53,18.39-73.53-9.19-73.53-9.19,4.09,14.3-8.17,23.49-8.17,23.49a27.61,27.61,0,0,1-11.4,4.75c-28.93,5.47-73.36-24.15-73.36-24.15-12.26,18.38-40.85,6.12-40.85,6.12l-144.41-88.36a230,230,0,0,1-90-102.42L1188.4,999.34S768.66,604.11,643,454,535.81,227.26,535.81,227.26L578.12,3l49.6-262.91,171.79,57.26,306.17,102.06L999.32,176.11l-27.91,72.61s266,499.39,367.12,576l2.75,2.07c99.53,74.7,162.7,83.72,162.7,83.72l115.72,17.86a179.32,179.32,0,0,1,105.73,57l15,16.63,33,36.53a17.06,17.06,0,0,1-4.42,26.37q-4.44,2.44-9,4.43a102.15,102.15,0,0,1-74.75,2.29l-64.84-23.25-25.82,14.76a48.64,48.64,0,0,0-20.16,62.39A258.54,258.54,0,0,0,1655.55,1226l61.87,46S1805,1337.5,1773.59,1373.13Z"/><path class="cls-18" d="M1741.93,1439.51c-25.53,18.39-73.53-9.19-73.53-9.19,4.09,14.3-8.17,23.49-8.17,23.49a27.61,27.61,0,0,1-11.4,4.75c-28.93,5.47-73.36-24.15-73.36-24.15-12.26,18.38-40.85,6.12-40.85,6.12l-144.41-88.36a230,230,0,0,1-90-102.42L1188.4,999.34S768.66,604.11,643,454,535.81,227.26,535.81,227.26L578.12,3l49.6-262.91,171.79,57.26q-19.05,59.3-32.91,120.12Q752.27-19.42,743.7,44.81c-4.7,35.25-8,71.58,1.07,106s32.92,66.83,67,77c17.94,5.35,37.51,4.31,54.92,11.21s32.31,27.13,23.7,43.76c-26-16.75-62.15,10.52-65.93,41.25s13.06,59.79,29.26,86.17c112,182.35,227.08,368.2,392,504.63,22.14,18.32,45.57,36.2,60.6,60.69,19.69,32.09,22.54,71.47,35.22,106.93,35.16,98.37,138,152.43,231.87,198.36,52.86,25.87,108.38,55.25,152.31,93.84C1734.18,1384.84,1764,1423.62,1741.93,1439.51Z"/><path class="cls-19" d="M1777.86,1049.93a17,17,0,0,1-8.82,15q-4.44,2.44-9,4.43a125.45,125.45,0,0,1-37.89-15.11,20,20,0,0,1-3.79-31q10.76-10.92,22.15-21.18l33,36.53A16.92,16.92,0,0,1,1777.86,1049.93Z"/><path class="cls-19" d="M1734,1367.44c5.71,3.37,12.07,6.08,18.71,6s13.53-3.53,16.18-9.61c2.48-5.67.89-12.26-1.44-18a75.39,75.39,0,0,0-19-27.26c-3.87-3.53-8.51-6.79-13.75-6.83-5.62,0-10.53,3.6-14.76,7.3a150.94,150.94,0,0,0-12.18,12c-2.13,2.34-4.47,5.64-4.41,9,0,2.53,2.31,4,4,5.62,5.38,5.09,10.64,10.27,16.48,14.84A95.85,95.85,0,0,0,1734,1367.44Z"/><path class="cls-12" d="M3470.92,572.13c-16.83,29-59.35,23.37-92.3,17.07a508.09,508.09,0,0,0-179.68-1.93c-12.71,2.14-26.22,5.25-35,14.71-15.29,16.5-8.93,42.56-3.93,64.49s4.17,50.94-16.59,59.6c-10.44,4.36-22.36,1.56-33.24-1.58-75-21.65-146-56.7-222.18-73.89-15.31-3.46-30.79-6.17-46.34-8.29l413-238.47c30.73,18.14,59.3,41.06,87.08,63.58Z"/><path class="cls-17" d="M2513.87-213,2298.22-41.54l468.41,324S2816,386.6,2880.47,446q5.9,5.43,11.52,10.67c57.84,53.67,94.64,90.19,94.64,90.19s16.19,52.59,62.26,85.49h0c.43.7,26.49,42.48,41.87,48.27a9.61,9.61,0,0,0,2.86.65c14.86.84,50.92-34.88,33.23-74.29s-47.4-60.44-54.41-97.34,7-59.93,35.41-81,115.19-12.17,115.19-12.17l56.26,22s117.52,124.4,173,117.73a36.42,36.42,0,0,0,32.72-15,9.12,9.12,0,0,0,1.74-4.16c1.7-10.87-14.5-26.84-31.95-41.36-13.09-10.91-26.9-21-34.38-27.52l-.67-.59c-18-16-49.75-51.77-49.75-51.77s-22.45-35.56-44.15-46.25-64.44-15.87-77-27.81l.81-1.23,21.8-33.54,8.87-13.64a49,49,0,0,0-6.68-36.06c-11.43-17.7-80.71-48.09-80.71-48.09s-22.2-11.95-39.81-11.2l-14.69-.42s-18-28.13-30.3-38.23-124.46-26.73-124.46-26.73l-88.81-9S2874,103,2852.47,95.11s-186.63-135-247.22-199.38S2513.87-213,2513.87-213Z"/><path class="cls-18" d="M2513.87-213,2298.22-41.54l468.41,324S2816,386.6,2880.47,446q5.9,5.43,11.52,10.67c-41.57-143.46,104.41-126.54,143.43-124.42,41.57,2.27,122.46-9.74,142.23,7s74.13,25.55,111.69,39.58,56.59,32.56,80.38,59.36c16.73,18.86,39,26.88,50.67,30l-.67-.59c-18-16-49.75-51.77-49.75-51.77s-22.45-35.56-44.15-46.25-64.44-15.87-77-27.81l.81-1.23c-13.2-4.36-26-10.18-32.53-17.56-16.77-18.94-18.52-43.9-18.52-43.9s12.35,1.83,34.89,14.61c19.06,10.8,27,4.23,38,13.31l8.87-13.64a49,49,0,0,0-6.68-36.06c-11.43-17.7-80.71-48.09-80.71-48.09s-22.2-11.95-39.81-11.2l-14.69-.42s-18-28.13-30.3-38.23-124.46-26.73-124.46-26.73l-88.81-9S2874,103,2852.47,95.11s-186.63-135-247.22-199.38S2513.87-213,2513.87-213Z"/><path class="cls-19" d="M3048.9,632.39c.43.7,26.49,42.48,41.87,48.27A62.47,62.47,0,0,0,3101,674a15.11,15.11,0,0,0,4.24-18l-5.53-12.12a14.57,14.57,0,0,0-17-8.09C3065.12,640.58,3049.38,632.64,3048.9,632.39Z"/><path class="cls-19" d="M3454.77,495.78l-.47.74a14.64,14.64,0,0,0,1.95,18.15,158.87,158.87,0,0,0,15.46,14c7.32,5.57,12.55,7.68,15,8.45C3488.42,526.27,3472.22,510.3,3454.77,495.78Z"/><polygon class="cls-12" points="5305.35 1538.58 3117.29 2801.86 2956.39 2708.96 5144.45 1445.68 5305.35 1538.58"/><polygon points="4459.9 1782.34 4324.51 1799.24 4324.51 1925.73 4420.71 1957.75 4477.11 1878.49 4459.9 1782.34"/><polygon id="Cube_face_-_top-3" data-name="Cube face - top" class="cls-5" points="4206.93 2040.72 4127.7 1994.98 4324.51 1881.35 4403.73 1927.09 4206.93 2040.72"/><g id="Axonometric_Cylinder" data-name="Axonometric Cylinder"><path id="Cylinder_face" data-name="Cylinder face" class="cls-20" d="M4178.31,2009.93c0,22.48-15.78,31.58-35.25,20.34s-35.23-38.56-35.23-61,15.77-31.58,35.23-20.34S4178.31,1987.45,4178.31,2009.93Z"/><path id="Cylinder_body" data-name="Cylinder body" class="cls-21" d="M4117.92,1946.56l206.37-119.14c6.39-3.83,15.29-3.36,25.15,2.33,19.45,11.24,35.23,38.57,35.23,61,0,11.11-3.85,18.94-10.09,22.68l-206.36,119.15c6.23-3.74,10.09-11.58,10.09-22.68,0-22.48-15.78-49.8-35.25-61C4133.22,1943.21,4124.32,1942.74,4117.92,1946.56Z"/></g><g id="Axonometric_Cube-4" data-name="Axonometric Cube"><polygon id="Cube_face_-_left-3" data-name="Cube face - left" class="cls-22" points="3276.28 2652.47 3197.05 2606.73 3197.05 2450.18 3276.28 2495.92 3276.28 2652.47"/><polygon class="cls-23" points="4415.66 1838.1 4415.66 1935.12 4194.4 2062.86 4194.4 1965.84 3276.28 2495.92 3276.28 2652.47 5228.79 1525.19 5228.79 1368.64 4415.66 1838.1"/><polygon points="4403.73 1844.98 4403.73 1927.09 4207.32 2040.5 4207.32 1958.38 4174.08 1977.57 4174.08 2090.53 4437.52 1938.44 4437.52 1825.48 4403.73 1844.98"/><polygon class="cls-24" points="4409.7 1841.54 5228.79 1368.64 5149.56 1322.9 4330.47 1795.79 4409.7 1841.54"/><polygon class="cls-5" points="4437.17 1825.68 4357.94 1779.94 4324.51 1799.24 4403.73 1844.98 4437.17 1825.68"/><polygon class="cls-24" points="4178.77 1974.87 4099.54 1929.13 3197.05 2450.18 3276.28 2495.92 4178.77 1974.87"/></g><g id="Axonometric_Cube-5" data-name="Axonometric Cube"><polygon id="Cube_face_-_left-4" data-name="Cube face - left" points="3161.01 2719.03 3081.78 2673.29 3081.78 2516.73 3161.01 2562.47 3161.01 2719.03"/><polygon id="Cube_face_-_right-2" data-name="Cube face - right" points="3280.04 2650.3 3161.01 2719.03 3161.01 2562.47 3280.04 2493.75 3280.04 2650.3"/><polygon id="Cube_face_-_top-4" data-name="Cube face - top" class="cls-5" points="3161.01 2562.47 3081.78 2516.73 3200.81 2448 3280.04 2493.75 3161.01 2562.47"/></g><path d="M3535.3,2369.22c16.27-9.4,32.2-8.74,41.19,3.37,12.91,18.38,5.52,55.86-17.42,84.49-7.36,9.09-15.42,16.08-23.39,20.67-16.27,9.4-32.13,8.84-40.8-3.92-13.43-18.07-5.5-55.86,16.9-83.56C3519.17,2380.93,3527.27,2373.85,3535.3,2369.22Z"/><polygon class="cls-5" points="4207.47 1958.29 4128.25 1912.55 4094.81 1931.86 4174.04 1977.6 4207.47 1958.29"/><path class="cls-12" d="M2309.94,2054.72c0-.32,0-.64,0-.95a17.33,17.33,0,0,0-.11-1.91,20.72,20.72,0,0,0-.47-2.8,22.91,22.91,0,0,0-1.57-4.47,27.41,27.41,0,0,0-2.67-4.48,42,42,0,0,0-13.15-11.28L1510.27,1577.5c-9.69-5.6-21.81-8.92-34.37-10h-.11c-.93-.07-1.86-.14-2.79-.19l-1.44-.06c-.49,0-1,0-1.48-.06-1.87,0-3.74,0-5.62,0h-.22a92.29,92.29,0,0,0-32.46,6.54,65.11,65.11,0,0,0-7.63,3.75L380.71,2183.88c-11.81,6.87-17.71,15.86-17.69,24.86,0,0,0-.06,0-.09l-.09,34.66c0,9.09,6,18.19,18,25.12l781.72,451.33v0a71.5,71.5,0,0,0,16.85,6.89q3.94,1.09,8.07,1.84a104.18,104.18,0,0,0,34.3.35,88.13,88.13,0,0,0,15.9-4,66.22,66.22,0,0,0,11-5.06l0-7.32,0,7.32,1043.44-606.38c11.78-6.85,17.68-15.8,17.7-24.77l.1-34.66C2310,2054.2,2310,2054.46,2309.94,2054.72ZM1162.71,2685.1h0c.69.4,1.4.78,2.11,1.15C1164.11,2685.88,1163.4,2685.5,1162.71,2685.1Zm5.23,2.68.09,0,1.2.54Zm11.52,4.17h0Zm8.07,1.86-.56-.12,1,.18Zm16.85,1.6h0Zm17.45-1.22-.35,0,.69-.1Zm15.9-4-.36.12,1-.37Zm11.1-5.09-.86.47c.28-.16.58-.31.86-.48Z"/><path class="cls-25" d="M1240.34,2645.29V2679a85.69,85.69,0,0,1-15.49,3.92,101.68,101.68,0,0,1-33.39-.35V2648.8a101.4,101.4,0,0,0,33.39.37A85.22,85.22,0,0,0,1240.34,2645.29Z"/><path class="cls-13" d="M2284.32,2025.8l-.1,33.74c0,8.73-5.76,17.46-17.23,24.12l.1-33.75C2278.56,2043.25,2284.3,2034.53,2284.32,2025.8Z"/><path d="M388.57,2210.18l.09-33.74c0,8.84,5.81,17.7,17.5,24.45l-.09,33.74C394.38,2227.88,388.54,2219,388.57,2210.18Z"/><polygon class="cls-13" points="2267.09 2049.91 2266.99 2083.66 1251.04 2674.06 1251.14 2640.32 2267.09 2049.91"/><polygon points="1167.29 2640.32 1167.19 2674.07 406.07 2234.63 406.16 2200.89 1167.29 2640.32"/><path class="cls-13" d="M1251.14,2640.32l-.1,33.75a66.21,66.21,0,0,1-10.7,4.92,85.69,85.69,0,0,1-15.49,3.92,101.68,101.68,0,0,1-33.39-.35c-2.68-.48-5.31-1.08-7.87-1.79a69.65,69.65,0,0,1-16.4-6.7l.09-33.75a70,70,0,0,0,16.31,6.68c2.56.71,5.19,1.32,7.87,1.8a101.4,101.4,0,0,0,33.39.37,85.22,85.22,0,0,0,15.49-3.88A65.38,65.38,0,0,0,1251.14,2640.32Z"/><path class="cls-26" d="M2266.82,2001.35c23.23,13.4,23.35,35.15.27,48.56L1251.14,2640.32c-23.08,13.41-60.62,13.41-83.85,0L406.16,2200.89c-23.22-13.41-23.35-35.16-.27-48.57l1016-590.41c23.09-13.41,60.63-13.41,83.85,0Z"/><path class="cls-13" d="M1463.72,1555.3c15.24,0,29.53,3.41,40.25,9.6l761.13,439.43c10.16,5.87,15.76,13.46,15.77,21.39s-5.5,15.39-15.52,21.21L1249.41,2637.34c-10.65,6.18-24.91,9.59-40.15,9.59s-29.53-3.41-40.25-9.6L407.89,2197.9c-10.16-5.87-15.77-13.46-15.78-21.38s5.5-15.4,15.52-21.22l1016-590.41c10.64-6.18,24.9-9.59,40.14-9.59m0-3.45c-15.18,0-30.34,3.36-41.88,10.06L405.89,2152.32c-23.08,13.41-22.95,35.16.27,48.57l761.13,439.43c11.61,6.71,26.8,10.06,42,10.06s30.34-3.35,41.88-10.06l1016-590.41c23.08-13.41,23-35.16-.27-48.56l-761.13-439.44c-11.61-6.71-26.8-10.06-42-10.06Z"/><path class="cls-13" d="M427.33,2164.78l1013.82-585.33c9.23-5.33,23.19-5.9,31.19-1.29l764.18,441.2c8,4.62,7,12.68-2.24,18L1220.47,2622.7c-9.23,5.33-23.2,5.91-31.2,1.29l-764.18-441.2C417.1,2178.17,418.1,2170.11,427.33,2164.78Z"/><path class="cls-25" d="M1458.79,1575.05v3.45h0a24.21,24.21,0,0,1,11.82,2.65l764.19,441.2c1.67,1,3.67,2.59,3.67,4.83s-2.21,5.07-5.91,7.2L1218.74,2619.71a32.71,32.71,0,0,1-15.92,3.95A24.09,24.09,0,0,1,1191,2621L426.82,2179.8c-1.68-1-3.68-2.59-3.68-4.83s2.21-5.06,5.92-7.2l1013.81-585.33a32.76,32.76,0,0,1,15.92-3.94v-3.45m0,0a36.4,36.4,0,0,0-17.64,4.41L427.33,2164.78c-9.23,5.33-10.23,13.39-2.24,18L1189.27,2624a27.66,27.66,0,0,0,13.55,3.12,36.33,36.33,0,0,0,17.65-4.41l1013.81-585.33c9.24-5.33,10.24-13.39,2.24-18l-764.18-441.2c-3.62-2.09-8.47-3.12-13.55-3.12Z"/><path class="cls-26" d="M773.1,2437.75l-32.73-18.9c-2.47-1.43-4.48-5.26-4.48-8.56h0c0-3.3,2-4.81,4.48-3.38l32.73,18.89c2.47,1.43,4.48,5.26,4.48,8.56h0C777.58,2437.66,775.57,2439.18,773.1,2437.75Z"/><text class="cls-27" transform="matrix(-0.87, 0.5, -0.87, -0.5, 2057.83, 1971.27)">Decima<tspan x="0" y="84.93" xml:space="preserve"> Number</tspan></text><text class="cls-28" transform="matrix(-0.88, 0.51, -0.87, -0.5, 1800.01, 1805.69)">3.75</text><path class="cls-11" d="M557.28,2151.68l405.29-234c30-17.32,82.41-15.15,117.06,4.85l543.95,314.05c34.65,20,38.41,50.26,8.41,67.58l-405.3,234c-30,17.32-82.41,15.15-117-4.85L565.69,2219.27C531,2199.26,527.28,2169,557.28,2151.68Z"/><text class="cls-29" transform="matrix(-0.89, 0.51, -0.87, -0.5, 1171.94, 2286.48)">3</text><text class="cls-29" transform="matrix(-0.89, 0.51, -0.87, -0.5, 858.37, 2095.64)">4</text><text class="cls-29" transform="matrix(-0.89, 0.51, -0.87, -0.5, 1229.21, 2082.24)">3</text><polygon class="cls-16" points="897.94 2337.76 1115.35 2212.24 1147.38 2230.73 929.98 2356.25 897.94 2337.76"/><path class="cls-9" d="M1234.27,1904.89l329.9-190.47c23.92-13.81,65.72-12.08,93.34,3.87h0c27.63,16,30.63,40.08,6.7,53.89l-329.89,190.47c-23.93,13.81-65.72,12.08-93.35-3.87h0C1213.35,1942.83,1210.34,1918.7,1234.27,1904.89Z"/><text class="cls-30" transform="matrix(-0.89, 0.51, -0.87, -0.5, 1567.33, 1749.23)">Convert</text><rect class="cls-1" width="4800" height="2700"/><path class="cls-12" d="M3602.44,1842.45h0L3647.1,1817c.87-3.89,2.63-6.71,5.39-8.17l39.51-22.63,1.34-.74h0l7.72-4.37h0l1-.62,11.73-6.62a11.36,11.36,0,0,1,9.72-.48l529.62-301.78a7.54,7.54,0,0,1,1.62-.58v-.11l77.37-23.5,24.4-7.4-18.78,17.23L4278.13,1512l-.06-.11c-.4.36-.84.77-1.25,1.11l-529.57,301.71c-.92,3.84-2.8,6.73-5.43,8.21l-6.3,3.59-.09.07-6.34,3.6h0l-7.72,4.4h0l-6.38,3.7h0l-34.48,19.63h0c-2.67,1.56-6.08,1.77-9.86.47l-44.56,25.51h0c-3.11,1.7-7.24,1.4-11.9-1.25-9.28-5.4-16.74-18.53-16.71-29.21C3597.5,1848,3599.35,1844.25,3602.44,1842.45Z"/><polygon class="cls-31" points="4332.73 1442.28 4351.52 1424.98 4327.1 1432.39 4332.73 1442.28"/><path class="cls-32" d="M4249.74,1455.91l23.34,41.1,59.65-54.73h0a3.07,3.07,0,0,0,.83-2.38,8.53,8.53,0,0,0-3.94-7,3.1,3.1,0,0,0-2.52-.55h0Z"/><path class="cls-33" d="M3709.17,1763.76l23.6,41.39,539-307.16c3-1.77,4.81-5.5,4.92-10.9,0-10.67-7.48-23.85-16.67-29.26-4.71-2.66-8.84-2.95-12-1.21Z"/><polygon points="4022.9 1635.33 4022.88 1627.56 3835.74 1734.44 3835.71 1742.15 4022.9 1635.33"/><polygon points="3827.57 1746.81 3827.68 1739.02 3781.84 1765.27 3781.83 1772.99 3827.57 1746.81"/><path class="cls-34" d="M3721.07,1765c9.24,5.38,16.69,18.52,16.61,29.22s-7.52,15-16.81,9.67-16.73-18.49-16.66-29.28S3711.78,1759.55,3721.07,1765Z"/><path class="cls-31" d="M3721,1778.42a11.76,11.76,0,0,1,5.22,9.09c0,3.35-2.38,4.6-5.26,3a11.79,11.79,0,0,1-5.13-9.13C3715.79,1778.09,3718,1776.77,3721,1778.42Z"/><path class="cls-5" d="M3647.45,1793.92l28.07,49.07,61.25-35.06c3.65-2,5.9-6.57,5.92-12.88.1-12.79-8.74-28.34-19.83-34.67-5.48-3.27-10.43-3.56-14.07-1.51Z"/><path class="cls-35" d="M3661.51,1795.32c11,6.45,19.92,21.94,19.83,34.68s-9,18-20,11.5-19.89-22-19.81-34.75S3650.54,1788.89,3661.51,1795.32Z"/><path d="M3667.85,1791.7c11,6.43,19.93,22,19.88,34.71,0,6.43-2.29,10.85-5.88,12.88l6.39-3.64c3.58-2.05,5.89-6.51,5.92-12.85.05-12.78-8.74-28.34-19.84-34.75-5.43-3.22-10.42-3.47-14.06-1.46l-6.48,3.62C3657.42,1788.16,3662.37,1788.51,3667.85,1791.7Z"/><path d="M3681.92,1783.67c11,6.47,19.92,21.95,19.87,34.74,0,6.36-2.33,10.79-6,12.89l6.48-3.67c3.62-2.1,5.89-6.55,5.91-12.94.09-12.71-8.78-28.26-19.84-34.75-5.48-3.14-10.47-3.49-14.06-1.4l-6.51,3.68C3671.48,1780.19,3676.43,1780.45,3681.92,1783.67Z"/><path d="M3696,1775.66c11,6.41,19.92,21.92,19.83,34.69-.07,6.38-2.35,10.8-5.88,12.9l6.38-3.66c3.73-2,5.9-6.53,5.93-12.85.09-12.82-8.87-28.36-19.79-34.78-5.53-3.2-10.57-3.5-14.15-1.45l-6.48,3.7C3685.51,1772.17,3690.54,1772.47,3696,1775.66Z"/><path d="M3710,1767.66c11.09,6.36,20,21.86,19.91,34.66,0,6.36-2.29,10.84-5.86,12.93l6.38-3.7c3.66-2.1,5.89-6.53,5.91-12.9.05-12.77-8.78-28.28-19.78-34.68-5.54-3.24-10.49-3.54-14.16-1.46l-6.34,3.64C3699.61,1764.06,3704.56,1764.41,3710,1767.66Z"/><path class="cls-36" d="M3597.48,1827.45l23.6,41.45,51.67-29.51c3.05-1.75,5-5.54,5-10.92.09-10.7-7.42-23.83-16.66-29.24-4.67-2.7-8.9-3-12-1.23Z"/><path class="cls-37" d="M3609.42,1828.76c9.24,5.4,16.65,18.52,16.63,29.22s-7.59,15.06-16.91,9.66-16.73-18.47-16.67-29.26S3600.06,1823.4,3609.42,1828.76Z"/></g></g></svg>